# xmcd
#
# Track frame offsets:
#	182
#	14442
#	22635
#	34882
#	49470
#	58902
#	68997
#	81225
#	91645
#	103057
#	116275
#	126820
#
# Disc length: 1828 seconds
#
# Revision: 1
# Processed by: cddbd v1.5.1PL2 Copyright (c) Steve Scherf et al.
# Submitted via: audiograbber 1.83.01
#
DISCID=9807220c
DTITLE=Los Jairas - La Flûte des Andes
DYEAR=1970
DGENRE=Folklore
TTITLE0=La pastora
TTITLE1=A vuestro pies madre
TTITLE2=El pasito del moreno
TTITLE3=Sarrihuay
TTITLE4=Noche de luna llena
TTITLE5=Levita larga
TTITLE6=Virgines del sol
TTITLE7=El iman de tus ajos
TTITLE8=La viditay
TTITLE9=Alturas de huallpacayu
TTITLE10=La culplable
TTITLE11=Carahuata
EXTD=
EXTT0=
EXTT1=
EXTT2=
EXTT3=
EXTT4=
EXTT5=
EXTT6=
EXTT7=
EXTT8=
EXTT9=
EXTT10=
EXTT11=
PLAYORDER=
